<svg class="icon" style="vertical-align: middle;fill: currentColor;overflow: hidden;" viewBox="0 0 1024 1024" version="1.1" xmlns="http://www.w3.org/2000/svg" p-id="851"><path d="M511.29648566 3.30634243c-280.89679386 0-508.61000275 227.71204736-508.61000275 508.61000275s227.71320889 508.61000275 508.61000275 508.61000274c280.89795539 0 508.61000275-227.71204736 508.61000273-508.61000274S792.19444217 3.30634243 511.29648566 3.30634243zM794.2997555 371.85601416l-334.86115788 334.86348096c-7.55798552 7.55682399-17.46527853 11.33639751-27.37140891 11.33639751s-19.81342452-3.77957352-27.37140889-11.33639751L228.29553886 530.31693111c-15.11945674-15.11248532-15.11945674-39.62568637 0-54.7381717 15.11713256-15.1217798 39.62568637-15.1217798 54.74281891 0l149.02883094 149.0276694 307.48858634-307.48974785c15.11829409-15.12061827 39.62568637-15.12061827 54.74398045 0C809.41688806 332.22916514 809.41688806 356.74352885 794.2997555 371.85601416z" fill="#66cc00" p-id="852"></path></svg>